<svg width="159.31" height="47.688" version="1.1" viewBox="0 0 42.151 12.618" xmlns="http://www.w3.org/2000/svg">
 <g transform="translate(-27.112 -4.3555)">
  <g fill="#c8b7c4">
   <g stroke-width=".22623">
    <path d="m40.421 14.018q-0.18226 0.16569-0.39214 0.31482-0.20436 0.1436-0.4308 0.25406-0.22645 0.10494-0.46946 0.16569-0.2375 0.06628-0.48603 0.06628-0.54679 0-1.0273-0.19331-0.48051-0.19331-0.84504-0.54679-0.359-0.359-0.56888-0.86713-0.20436-0.51365-0.20436-1.1488v-3.2697h1.5023v3.2697q0 0.29825 0.08837 0.53574 0.09389 0.23197 0.24854 0.39214 0.15465 0.16017 0.359 0.24302 0.20988 0.08284 0.44737 0.08284 0.23197 0 0.43633-0.10494 0.20988-0.11046 0.36452-0.2872 0.15465-0.17674 0.24302-0.39766 0.08837-0.22645 0.08837-0.46394v-3.2697h1.5078v5.9153h-0.36452z"/>
    <path d="m45.685 14.709h-3.4464v-1.5023h3.4464q0.15465 0 0.26511-0.11046 0.11046-0.11046 0.11046-0.26511 0-0.16017-0.11046-0.20988-0.11046-0.04971-0.26511-0.04971h-1.5686q-0.39214 0-0.73457-0.14912-0.34243-0.14912-0.5965-0.40319-0.25406-0.25959-0.40319-0.60202-0.1436-0.34243-0.1436-0.73457t0.1436-0.73457q0.14912-0.34243 0.40319-0.5965 0.25406-0.25406 0.5965-0.39766 0.34243-0.14912 0.73457-0.14912h3.0543v1.5023h-3.0543q-0.15465 0-0.26511 0.11046-0.11046 0.11046-0.11046 0.26511 0 0.16017 0.11046 0.27616 0.11046 0.11046 0.26511 0.11046h1.5686q0.38662 0 0.72905 0.13256 0.34243 0.12703 0.5965 0.359t0.40319 0.55784q0.14912 0.32586 0.14912 0.71248 0 0.39214-0.14912 0.73457-0.14912 0.33691-0.40319 0.5965-0.25406 0.25406-0.5965 0.40319-0.34243 0.1436-0.72905 0.1436z"/>
    <path d="m50.136 7.1862q0 0.20988-0.08284 0.39214-0.07732 0.18226-0.2154 0.32034-0.13808 0.13255-0.32586 0.2154-0.18226 0.077324-0.39214 0.077324t-0.39766-0.077324q-0.18226-0.082847-0.32034-0.2154-0.13256-0.13808-0.2154-0.32034-0.07732-0.18226-0.07732-0.39214 0-0.20436 0.07732-0.38662 0.08284-0.18779 0.2154-0.32034 0.13808-0.13808 0.32034-0.2154 0.18779-0.082847 0.39766-0.082847t0.39214 0.082847q0.18779 0.077324 0.32586 0.2154 0.13808 0.13255 0.2154 0.32034 0.08284 0.18226 0.08284 0.38662zm-0.25959 7.5225h-1.5189v-5.9153h1.5189z"/>
    <path d="m56.201 9.9698-1.1046 1.1101q-0.08284-0.23197-0.22645-0.41423-0.1436-0.18779-0.32586-0.31482-0.17674-0.12703-0.38662-0.19331-0.20988-0.06628-0.4308-0.06628-0.3093 0-0.58545 0.12703-0.27063 0.12703-0.47499 0.359-0.19883 0.22645-0.31482 0.54126-0.11599 0.31482-0.11599 0.69591 0 0.3093 0.11599 0.57993 0.11598 0.27063 0.31482 0.47499 0.20436 0.20436 0.47499 0.32034 0.27616 0.11598 0.58545 0.11598 0.22092 0 0.42528-0.06075 0.20436-0.06076 0.3811-0.17122 0.18226-0.11599 0.32034-0.27616 0.1436-0.16569 0.23197-0.36452l1.1046 1.1101q-0.20988 0.29825-0.48603 0.53574-0.27063 0.2375-0.59097 0.40319-0.31482 0.16569-0.6683 0.24854-0.34796 0.08837-0.718 0.08837-0.62411 0-1.1764-0.23197-0.54679-0.23749-0.96102-0.6462-0.40871-0.40871-0.6462-0.9555t-0.23749-1.1709q0-0.67934 0.23749-1.2703 0.23749-0.59097 0.6462-1.0273 0.41423-0.44185 0.96102-0.69591 0.55231-0.25406 1.1764-0.25406 0.37005 0 0.72353 0.093893 0.359 0.093893 0.67934 0.27616 0.32586 0.17674 0.5965 0.43633 0.27616 0.25959 0.47499 0.5965z"/>
    <path d="m58.708 7.1862q0 0.20988-0.08284 0.39214-0.07732 0.18226-0.2154 0.32034-0.13808 0.13255-0.32586 0.2154-0.18226 0.077324-0.39214 0.077324-0.20988 0-0.39766-0.077324-0.18226-0.082847-0.32034-0.2154-0.13255-0.13808-0.2154-0.32034-0.07732-0.18226-0.07732-0.39214 0-0.20436 0.07732-0.38662 0.08284-0.18779 0.2154-0.32034 0.13808-0.13808 0.32034-0.2154 0.18779-0.082847 0.39766-0.082847 0.20988 0 0.39214 0.082847 0.18779 0.077324 0.32586 0.2154 0.13808 0.13255 0.2154 0.32034 0.08284 0.18226 0.08284 0.38662zm-0.25959 7.5225h-1.5189v-5.9153h1.5189z"/>
    <path d="m61.519 14.709h-1.5078v-4.413h-0.73457v-1.5023h0.73457v-0.28168q0-0.54679 0.20436-1.0273 0.20988-0.48051 0.56888-0.83399 0.36453-0.359 0.84504-0.56336 0.48051-0.20988 1.0273-0.20988h1.1322v1.5023h-1.1322q-0.24302 0-0.4529 0.08837-0.20436 0.082847-0.359 0.23749-0.14912 0.14912-0.23749 0.359-0.08837 0.20436-0.08837 0.44737v0.28168h1.8502v1.5023h-1.8502z"/>
    <path d="m65.468 16.962v-1.5189l0.83951 0.01105q0.22092 0 0.42528-0.0718t0.37557-0.19883q0.17674-0.12703 0.3093-0.30377 0.13255-0.17122 0.2154-0.37557-0.24854 0.10494-0.50813 0.20988-0.25406 0.10494-0.51365 0.10494-0.54679 0-1.0273-0.19331-0.48051-0.19331-0.84504-0.54679-0.359-0.359-0.56888-0.86713-0.20436-0.51365-0.20436-1.1488v-3.2697h1.5023v3.2697q0 0.31482 0.08837 0.55231 0.09389 0.23197 0.24854 0.39214 0.15465 0.15465 0.359 0.23197 0.20988 0.07732 0.44737 0.07732 0.23197 0 0.43633-0.10494 0.20988-0.11046 0.36452-0.2872 0.15465-0.17674 0.24302-0.39766 0.08837-0.22645 0.08837-0.46394v-3.2697h1.5189v5.1696q-0.0056 0.62411-0.24302 1.1709-0.23749 0.54679-0.65173 0.9555-0.40871 0.40871-0.9555 0.6462-0.54679 0.23749-1.1709 0.23749z"/>
   </g>
   <g id="M-icon">
    <g transform="matrix(-.85503 0 0 -.85503 3.9304 1.6372)" stroke-width=".26458" aria-label="M">
     <path d="m-27.112-6.3542h-1.8474v-6.6146q0-0.19379-0.07751-0.36174-0.07106-0.16795-0.20025-0.29068-0.12273-0.12919-0.29068-0.20025-0.16795-0.07105-0.36174-0.07105-0.19379 0-0.36174 0.07105-0.16795 0.07105-0.29714 0.20025-0.12273 0.12273-0.19379 0.29068-0.07106 0.16795-0.07106 0.36174v6.6146h-1.8539v-6.6146q0-0.19379-0.07106-0.36174t-0.20025-0.29068q-0.12273-0.12919-0.29068-0.20025-0.16795-0.07105-0.36174-0.07105-0.19379 0-0.36174 0.07105-0.16795 0.07105-0.29714 0.20025-0.12273 0.12273-0.19379 0.29068-0.07106 0.16795-0.07106 0.36174v6.6146h-1.8539v-6.6146q0-0.5749 0.21317-1.0787 0.21962-0.51031 0.59428-0.88496 0.38111-0.38112 0.88496-0.59428 0.51031-0.21962 1.0852-0.21962 0.51676 0 0.99477 0.18733 0.47801 0.18087 0.85912 0.52968 0.38112-0.34882 0.85266-0.52968 0.47801-0.18733 0.99477-0.18733 0.5749 0 1.0787 0.21962 0.51031 0.21317 0.88496 0.59428 0.38112 0.37466 0.59428 0.88496 0.21963 0.50385 0.21963 1.0787z" fill="#c8b7c4" stroke-width=".26458"/>
    </g>
    <path d="m35.026 12.386h-1.5796v-5.6557q0-0.16569-0.06628-0.30929-0.06075-0.1436-0.17121-0.24854-0.10494-0.11046-0.24854-0.17122-0.1436-0.060754-0.30929-0.060754t-0.30929 0.060754-0.25406 0.17122q-0.10494 0.10494-0.16569 0.24854-0.06076 0.1436-0.06076 0.30929v5.6557h-1.5851v-5.6557q0-0.16569-0.06076-0.30929-0.06075-0.1436-0.17121-0.24854-0.10494-0.11046-0.24854-0.17122-0.1436-0.060754-0.3093-0.060754t-0.30929 0.060754-0.25406 0.17122q-0.10494 0.10494-0.16569 0.24854-0.06076 0.1436-0.06076 0.30929v5.6557h-1.5851v-5.6557q0-0.49156 0.18226-0.92236 0.18778-0.43633 0.50813-0.75667 0.32586-0.32586 0.75667-0.50813 0.43633-0.18779 0.92788-0.18779 0.44185 0 0.85056 0.16017 0.40871 0.15465 0.73457 0.4529 0.32586-0.29825 0.72905-0.4529 0.40871-0.16017 0.85056-0.16017 0.49156 0 0.92236 0.18779 0.43633 0.18226 0.75667 0.50813 0.32586 0.32034 0.50813 0.75667 0.18778 0.4308 0.18778 0.92236z" stroke-width=".22623"/>
   </g>
  </g>
 </g>
</svg>
