<?xml version="1.0" standalone="no"?>
<!DOCTYPE svg PUBLIC "-//W3C//DTD SVG 20010904//EN"
 "http://www.w3.org/TR/2001/REC-SVG-20010904/DTD/svg10.dtd">
<svg version="1.0" xmlns="http://www.w3.org/2000/svg"
 width="1028.000000pt" height="1028.000000pt" viewBox="0 0 1028.000000 1028.000000"
 preserveAspectRatio="xMidYMid meet">
<metadata>
Created by potrace 1.14, written by Peter Selinger 2001-2017
</metadata>
<g transform="translate(0.000000,1028.000000) scale(0.100000,-0.100000)"
fill="#000000" stroke="none">
<path d="M4900 10265 c-28 -10 -351 -116 -370 -121 -3 0 -12 -3 -20 -7 -31
-11 -241 -79 -258 -82 -9 -2 -18 -4 -19 -5 -2 -2 -6 -3 -10 -5 -5 -1 -15 -4
-23 -8 -8 -3 -80 -26 -160 -52 -80 -25 -152 -49 -160 -52 -8 -4 -17 -7 -20 -8
-3 0 -23 -7 -45 -14 -57 -18 -65 -20 -70 -21 -2 -1 -64 -22 -137 -46 -73 -25
-144 -47 -157 -50 -14 -3 -29 -8 -35 -12 -6 -3 -20 -8 -30 -9 -11 -2 -25 -8
-33 -14 -7 -6 -13 -9 -13 -6 0 3 -33 -6 -72 -19 -40 -14 -77 -27 -83 -28 -5
-2 -23 -6 -40 -11 -16 -4 -34 -11 -40 -16 -5 -4 -12 -7 -15 -6 -3 0 -106 -32
-230 -72 -123 -41 -229 -74 -235 -75 -5 -1 -16 -5 -22 -9 -7 -5 -22 -10 -33
-12 -19 -4 -119 -36 -160 -52 -8 -3 -20 -7 -26 -8 -11 -3 -574 -185 -784 -254
-63 -21 -173 -57 -245 -80 -71 -24 -137 -45 -145 -48 -8 -4 -21 -5 -27 -4 -7
1 -13 -4 -13 -10 0 -7 -3 -10 -6 -7 -3 4 -45 -7 -92 -24 -48 -16 -98 -32 -112
-34 -13 -3 -30 -10 -37 -16 -7 -6 -13 -8 -13 -4 0 3 -24 -4 -52 -15 -29 -12
-63 -23 -74 -25 -12 -2 -38 -11 -58 -19 -20 -8 -36 -14 -36 -12 0 2 -35 -8
-77 -23 l-78 -28 -3 -3966 -2 -3966 22 -5 c51 -12 125 -26 153 -30 17 -2 32
-4 35 -6 3 -1 10 -3 15 -4 6 -2 12 -4 15 -5 3 -1 14 -3 25 -5 11 -1 32 -5 48
-9 15 -3 39 -8 55 -11 15 -3 61 -13 102 -22 41 -8 95 -20 120 -25 25 -5 56
-12 70 -15 14 -2 34 -6 45 -8 11 -2 31 -6 45 -9 14 -3 48 -10 75 -15 28 -6 93
-19 145 -31 52 -11 106 -23 120 -25 14 -3 36 -7 50 -10 14 -3 39 -8 55 -11 17
-3 68 -14 115 -24 47 -10 99 -21 115 -24 17 -3 41 -8 55 -11 14 -3 36 -8 50
-10 14 -2 90 -18 170 -35 80 -17 157 -33 172 -35 15 -2 31 -6 35 -8 8 -5 55
-14 116 -22 15 -2 31 -7 36 -9 5 -3 24 -8 42 -10 19 -3 77 -14 129 -25 52 -11
110 -23 129 -26 19 -3 37 -7 40 -9 5 -4 23 -7 106 -21 11 -2 30 -6 42 -9 36
-9 177 -39 246 -52 21 -4 40 -8 90 -19 12 -3 38 -8 57 -11 19 -3 85 -16 145
-29 160 -35 167 -36 200 -41 17 -2 37 -7 45 -10 8 -3 33 -8 54 -11 22 -2 48
-9 58 -14 10 -5 18 -8 18 -5 0 2 27 -2 60 -10 32 -7 72 -16 87 -19 15 -2 39
-7 53 -10 14 -3 39 -8 55 -10 17 -3 45 -9 63 -14 18 -5 35 -10 37 -10 3 -1 6
-1 8 -2 1 0 15 -2 32 -4 16 -2 50 -9 75 -14 25 -6 59 -13 75 -16 17 -3 39 -8
50 -10 58 -13 74 -17 115 -25 25 -4 56 -11 70 -14 93 -22 141 -30 180 -30 44
-1 180 13 190 19 3 1 32 5 65 9 33 3 71 8 85 11 14 3 43 7 65 9 72 8 140 17
155 21 8 2 38 7 65 10 28 3 61 8 75 11 14 2 46 6 73 9 26 3 62 7 80 11 61 11
153 23 197 27 14 1 30 5 35 8 6 3 22 5 38 4 15 0 27 2 27 5 0 3 15 5 33 6 28
0 66 5 157 19 23 3 80 11 140 20 14 2 45 6 70 9 25 3 62 8 84 11 21 4 50 8 65
10 14 2 26 4 26 5 0 0 21 3 46 5 25 2 60 7 77 10 60 10 87 14 142 20 30 3 62
8 70 10 8 2 39 7 69 10 30 4 62 8 71 10 9 2 41 6 71 10 30 4 68 9 84 11 17 3
44 6 60 8 53 6 160 23 160 26 0 0 20 3 45 5 25 2 61 7 80 9 19 3 58 9 85 12
28 3 61 8 75 10 25 5 48 8 129 18 51 6 109 15 136 20 11 2 49 7 85 12 36 4 67
8 70 9 3 1 30 5 60 9 30 4 66 9 80 11 14 3 43 6 65 9 105 13 129 16 154 21 29
5 65 10 146 20 28 3 60 8 72 10 12 3 40 7 62 10 74 9 116 15 141 19 27 5 110
16 150 21 14 1 45 6 70 9 25 4 79 11 120 17 116 16 157 22 240 34 14 2 48 7
75 10 28 4 58 9 68 11 16 5 17 218 17 4285 0 2353 -3 4279 -7 4280 -20 2 -50
8 -73 14 -14 3 -36 8 -50 10 -14 2 -63 13 -109 25 -46 11 -86 19 -88 16 -3 -3
-13 -1 -22 3 -9 5 -29 11 -46 14 -16 3 -41 9 -55 12 -14 4 -34 8 -45 10 -38 7
-73 15 -206 45 -73 17 -147 33 -163 36 -17 2 -39 7 -48 10 -9 3 -25 7 -35 9
-10 2 -54 11 -98 20 -44 9 -88 19 -98 20 -9 2 -20 6 -25 8 -4 3 -25 8 -47 12
-83 15 -120 22 -120 25 0 1 -15 3 -34 5 -19 2 -37 7 -40 12 -3 4 -17 8 -31 9
-27 1 -65 9 -90 18 -13 4 -57 13 -100 20 -9 1 -21 6 -28 10 -7 4 -16 6 -18 3
-3 -3 -20 -1 -37 5 -18 5 -41 11 -52 13 -22 4 -72 14 -185 40 -116 26 -124 27
-145 30 -11 2 -20 4 -20 5 0 2 -9 4 -20 5 -11 2 -90 19 -175 39 -85 19 -167
37 -183 40 -15 2 -37 8 -48 11 -12 4 -31 8 -42 10 -32 5 -77 15 -117 25 -19 5
-46 11 -60 14 -14 3 -68 14 -120 26 -52 12 -111 24 -130 27 -19 3 -40 9 -47
15 -7 5 -16 7 -20 5 -5 -3 -33 1 -63 9 -30 8 -64 16 -75 19 -11 2 -30 6 -41 9
-12 2 -38 7 -59 10 -20 4 -41 8 -45 11 -4 3 -25 7 -46 10 -22 3 -46 9 -54 12
-8 3 -24 7 -35 9 -11 1 -51 10 -90 19 -38 9 -80 17 -92 18 -13 0 -23 4 -23 8
0 3 -10 5 -22 5 -13 -1 -27 1 -33 5 -5 4 -13 7 -18 7 -10 0 -143 28 -227 49
-36 8 -76 17 -90 20 -34 7 -54 11 -60 13 -3 1 -12 2 -22 1 -9 -1 -19 2 -22 8
-3 5 -15 7 -26 4 -12 -3 -20 0 -20 6 0 7 -4 10 -8 7 -4 -2 -76 11 -160 30 -84
18 -165 36 -180 39 -62 13 -78 17 -136 30 -74 18 -81 18 -126 0z"/>
</g>
</svg>
