<?xml version="1.0" encoding="UTF-8" standalone="no"?>
<svg
   xmlns:dc="http://purl.org/dc/elements/1.1/"
   xmlns:cc="http://creativecommons.org/ns#"
   xmlns:rdf="http://www.w3.org/1999/02/22-rdf-syntax-ns#"
   xmlns:svg="http://www.w3.org/2000/svg"
   xmlns="http://www.w3.org/2000/svg"
   xmlns:xlink="http://www.w3.org/1999/xlink"
   xmlns:sodipodi="http://sodipodi.sourceforge.net/DTD/sodipodi-0.dtd"
   xmlns:inkscape="http://www.inkscape.org/namespaces/inkscape"
   width="159.31"
   height="47.688"
   version="1.1"
   viewBox="0 0 42.151 12.618"
   id="svg60"
   sodipodi:docname="logo.svg">
  <metadata
     id="metadata66">
    <rdf:RDF>
      <cc:Work
         rdf:about="">
        <dc:format>image/svg+xml</dc:format>
        <dc:type
           rdf:resource="http://purl.org/dc/dcmitype/StillImage" />
      </cc:Work>
    </rdf:RDF>
  </metadata>
  <defs
     id="defs64">
    <linearGradient
       inkscape:collect="always"
       id="linearGradient1123">
      <stop
         style="stop-color:#2a7fff;stop-opacity:1"
         offset="0"
         id="stop1119" />
      <stop
         style="stop-color:#55ff55;stop-opacity:1"
         offset="1"
         id="stop1121" />
    </linearGradient>
    <linearGradient
       inkscape:collect="always"
       id="linearGradient1018">
      <stop
         style="stop-color:#000000;stop-opacity:1;"
         offset="0"
         id="stop1014" />
      <stop
         style="stop-color:#000000;stop-opacity:0;"
         offset="1"
         id="stop1016" />
    </linearGradient>
    <linearGradient
       inkscape:collect="always"
       id="linearGradient932">
      <stop
         style="stop-color:#ffcc00;stop-opacity:1"
         offset="0"
         id="stop928" />
      <stop
         style="stop-color:#55ff55;stop-opacity:1"
         offset="1"
         id="stop930" />
    </linearGradient>
    <linearGradient
       inkscape:collect="always"
       xlink:href="#linearGradient1123"
       id="linearGradient934"
       x1="10.312366"
       y1="6.1963344"
       x2="35.683598"
       y2="6.429616"
       gradientUnits="userSpaceOnUse"
       gradientTransform="translate(0,1.0583795)" />
    <linearGradient
       inkscape:collect="always"
       xlink:href="#linearGradient1018"
       id="linearGradient1030"
       gradientUnits="userSpaceOnUse"
       x1="32.243744"
       y1="4.3065991"
       x2="39.381388"
       y2="4.3065991" />
    <linearGradient
       inkscape:collect="always"
       xlink:href="#linearGradient932"
       id="linearGradient1113"
       gradientUnits="userSpaceOnUse"
       x1="10.312366"
       y1="6.1963344"
       x2="35.683598"
       y2="6.429616"
       gradientTransform="translate(25.192775,1.3306705)" />
    <linearGradient
       inkscape:collect="always"
       xlink:href="#linearGradient1123"
       id="linearGradient1138"
       gradientUnits="userSpaceOnUse"
       gradientTransform="translate(0,1.0583795)"
       x1="10.312366"
       y1="6.1963344"
       x2="35.683598"
       y2="6.429616" />
    <linearGradient
       inkscape:collect="always"
       xlink:href="#linearGradient1123"
       id="linearGradient1140"
       gradientUnits="userSpaceOnUse"
       gradientTransform="translate(0,1.0583795)"
       x1="10.312366"
       y1="6.1963344"
       x2="35.683598"
       y2="6.429616" />
    <linearGradient
       inkscape:collect="always"
       xlink:href="#linearGradient1123"
       id="linearGradient1142"
       gradientUnits="userSpaceOnUse"
       gradientTransform="translate(0,1.0583795)"
       x1="10.312366"
       y1="6.1963344"
       x2="35.683598"
       y2="6.429616" />
    <linearGradient
       inkscape:collect="always"
       xlink:href="#linearGradient1123"
       id="linearGradient1144"
       gradientUnits="userSpaceOnUse"
       gradientTransform="translate(0,1.0583795)"
       x1="10.312366"
       y1="6.1963344"
       x2="35.683598"
       y2="6.429616" />
    <linearGradient
       inkscape:collect="always"
       xlink:href="#linearGradient1123"
       id="linearGradient1146"
       gradientUnits="userSpaceOnUse"
       gradientTransform="translate(0,1.0583795)"
       x1="10.312366"
       y1="6.1963344"
       x2="35.683598"
       y2="6.429616" />
    <linearGradient
       inkscape:collect="always"
       xlink:href="#linearGradient932"
       id="linearGradient1162"
       gradientUnits="userSpaceOnUse"
       gradientTransform="translate(25.192775,1.3306705)"
       x1="10.312366"
       y1="6.1963344"
       x2="35.683598"
       y2="6.429616" />
    <linearGradient
       inkscape:collect="always"
       xlink:href="#linearGradient932"
       id="linearGradient1164"
       gradientUnits="userSpaceOnUse"
       gradientTransform="translate(25.192775,1.3306705)"
       x1="10.312366"
       y1="6.1963344"
       x2="35.683598"
       y2="6.429616" />
  </defs>
  <sodipodi:namedview
     pagecolor="#ffffff"
     bordercolor="#666666"
     borderopacity="1"
     objecttolerance="10"
     gridtolerance="10"
     guidetolerance="10"
     inkscape:pageopacity="0"
     inkscape:pageshadow="2"
     inkscape:window-width="640"
     inkscape:window-height="480"
     id="namedview62"
     showgrid="false" />
  <path
     d="M 11.753602,10.525042 H 11.395469 L 10.820284,9.72738 q -0.211624,0.1899194 -0.45038,0.358134 -0.23333,0.162788 -0.4937908,0.287592 -0.2604609,0.119378 -0.5372007,0.189919 -0.2713135,0.07054 -0.5534795,0.07054 -0.6131684,0 -1.1557954,-0.227903 Q 7.092437,10.172334 6.6854667,9.7653639 6.2839228,9.3529674 6.0505932,8.7940616 5.8172636,8.2297296 5.8172636,7.5677247 q 0,-0.6565786 0.2333296,-1.2209106 Q 6.2839228,5.782482 6.6854667,5.3700856 7.092437,4.9576891 7.6296376,4.7243595 8.1722646,4.4910299 8.785433,4.4910299 q 0.1953457,0 0.401544,0.032558 0.2116245,0.032558 0.4069702,0.1085254 0.200772,0.070542 0.3744126,0.1899194 Q 10.142,4.9414103 10.261378,5.1150509 V 2.4019162 h 1.492224 z M 10.261378,7.5677247 q 0,-0.3038711 -0.119378,-0.5860371 Q 10.028049,6.6940953 9.8272768,6.4770445 9.6265048,6.2545675 9.3551913,6.124337 9.0893041,5.9886803 8.785433,5.9886803 q -0.3038711,0 -0.5751845,0.1085254 Q 7.9443613,6.2057311 7.7435893,6.4119293 7.5482436,6.6127013 7.4342919,6.9057198 7.3203403,7.1987384 7.3203403,7.5677247 q 0,0.3201499 0.1139516,0.6077422 0.1139517,0.2875923 0.3092974,0.5046431 0.200772,0.2170507 0.4666592,0.3418549 0.2713134,0.1248042 0.5751845,0.1248042 0.3038711,0 0.5697583,-0.1302304 Q 9.6265048,8.8808819 9.8272768,8.6638311 10.028049,8.4413541 10.142,8.1591881 10.261378,7.8715958 10.261378,7.5677247 Z"
     style="font-style:normal;font-variant:normal;font-weight:normal;font-stretch:normal;font-size:11.113px;line-height:1.25;font-family:Righteous;-inkscape-font-specification:Righteous;fill:url(#linearGradient1138);fill-opacity:1;stroke-width:0.264595"
     id="path1125" />
  <path
     d="m 14.634952,3.1344625 q 0,0.2061983 -0.08139,0.3852652 -0.07597,0.1790669 -0.211625,0.3147236 -0.135657,0.1302305 -0.32015,0.2116245 -0.179067,0.075968 -0.385265,0.075968 -0.206198,0 -0.390691,-0.075968 -0.179067,-0.081394 -0.314724,-0.2116245 -0.13023,-0.1356567 -0.211624,-0.3147236 -0.07597,-0.1790669 -0.07597,-0.3852652 0,-0.2007719 0.07597,-0.3798388 0.08139,-0.1844932 0.211624,-0.3147237 0.135657,-0.1356567 0.314724,-0.2116245 0.184493,-0.081394 0.390691,-0.081394 0.206198,0 0.385265,0.081394 0.184493,0.075968 0.32015,0.2116245 0.135657,0.1302305 0.211625,0.3147237 0.08139,0.1790669 0.08139,0.3798388 z M 14.379917,10.525042 H 12.887693 V 4.713507 h 1.492224 z"
     style="font-style:normal;font-variant:normal;font-weight:normal;font-stretch:normal;font-size:11.113px;line-height:1.25;font-family:Righteous;-inkscape-font-specification:Righteous;fill:url(#linearGradient1140);fill-opacity:1;stroke-width:0.264595"
     id="path1127" />
  <path
     d="M 21.141049,10.525042 H 20.782915 L 20.20773,9.72738 q -0.211624,0.1899194 -0.45038,0.358134 -0.23333,0.162788 -0.493791,0.287592 -0.260461,0.119378 -0.5372,0.189919 -0.271314,0.07054 -0.55348,0.07054 -0.613168,0 -1.155795,-0.206198 Q 16.479883,10.22117 16.072913,9.8304791 15.671369,9.4343614 15.438039,8.8646031 15.20471,8.2948448 15.20471,7.5677247 q 0,-0.6782837 0.233329,-1.2426157 0.23333,-0.5697583 0.634874,-0.9767285 0.40697,-0.4069702 0.944171,-0.6294473 0.542627,-0.2279033 1.155795,-0.2279033 0.282166,0 0.558906,0.070542 0.27674,0.070542 0.537201,0.1953457 0.260461,0.1248042 0.49379,0.2930186 0.238756,0.1682143 0.444954,0.36356 L 20.782915,4.72436 h 0.358134 z M 19.648824,7.5677247 q 0,-0.3038711 -0.119377,-0.5860371 Q 19.415495,6.6940953 19.214723,6.4770445 19.013951,6.2545675 18.742637,6.124337 18.47675,5.9886803 18.172879,5.9886803 q -0.303871,0 -0.575184,0.1030991 -0.265888,0.1030991 -0.46666,0.3038711 -0.195345,0.200772 -0.309297,0.4992168 -0.113952,0.2930185 -0.113952,0.6728574 0,0.3798389 0.113952,0.6782837 0.113952,0.2930185 0.309297,0.4937905 0.200772,0.200772 0.46666,0.3038711 0.271313,0.1030991 0.575184,0.1030991 0.303871,0 0.569758,-0.1302304 0.271314,-0.1356568 0.472086,-0.3527076 0.200772,-0.222477 0.314724,-0.504643 0.119377,-0.2875923 0.119377,-0.5914634 z"
     style="font-style:normal;font-variant:normal;font-weight:normal;font-stretch:normal;font-size:11.113px;line-height:1.25;font-family:Righteous;-inkscape-font-specification:Righteous;fill:url(#linearGradient1142);fill-opacity:1;stroke-width:0.264595"
     id="path1129" />
  <path
     d="m 25.178193,10.525042 q -0.5372,0 -1.009286,-0.200772 Q 23.696822,10.118071 23.338688,9.7653639 22.98598,9.4072301 22.779782,8.9351446 22.57901,8.4630592 22.57901,7.9258585 V 6.2003048 H 21.857316 V 4.7243595 H 22.57901 V 2.4019162 h 1.475945 v 2.3224433 h 2.246476 v 1.4759453 h -2.246476 v 1.7255537 q 0,0.2333296 0.08682,0.4395278 0.08682,0.200772 0.238756,0.3527075 0.151935,0.1519356 0.358133,0.2441822 0.206199,0.08682 0.439528,0.08682 h 1.123238 v 1.475946 z"
     style="font-style:normal;font-variant:normal;font-weight:normal;font-stretch:normal;font-size:11.113px;line-height:1.25;font-family:Righteous;-inkscape-font-specification:Righteous;fill:url(#linearGradient1144);fill-opacity:1;stroke-width:0.264595"
     id="path1131" />
  <path
     d="M 28.607597,10.525042 H 27.126225 V 4.713507 h 0.358134 l 0.488364,0.6891362 Q 28.330857,5.077067 28.786663,4.9034264 29.24247,4.7243595 29.730834,4.7243595 h 1.307731 v 1.4759453 h -1.307731 q -0.233329,0 -0.439527,0.08682 -0.206199,0.08682 -0.358134,0.2387559 -0.151936,0.1519355 -0.238756,0.3581338 -0.08682,0.2061982 -0.08682,0.4395278 z"
     style="font-style:normal;font-variant:normal;font-weight:normal;font-stretch:normal;font-size:11.113px;line-height:1.25;font-family:Righteous;-inkscape-font-specification:Righteous;fill:url(#linearGradient1146);fill-opacity:1;stroke-width:0.264595"
     id="path1133" />
  <g
     aria-label="o"
     id="text926-5"
     style="font-size:11.113px;line-height:1.25;font-family:sans-serif;fill:url(#linearGradient1030);fill-opacity:1;stroke-width:0.264595" />
  <g
     aria-label="o"
     id="text984"
     style="font-size:7.37815px;line-height:1.25;font-family:sans-serif;fill:#ff5555;fill-opacity:1;stroke:none;stroke-width:0.26459487;stroke-miterlimit:4;stroke-dasharray:none;stroke-opacity:1"
     transform="translate(0,1.0583795)">
    <path
       id="path1025"
       style="font-style:normal;font-variant:normal;font-weight:normal;font-stretch:normal;font-size:7.37815px;font-family:Righteous;-inkscape-font-specification:Righteous;fill:#ff5555;fill-opacity:1;stroke:none;stroke-width:0.26459487;stroke-miterlimit:4;stroke-dasharray:none;stroke-opacity:1"
       d="m 36.185002,6.5414067 q 0,0.4323134 -0.154912,0.8069851 -0.154912,0.3710691 -0.421506,0.6448676 -0.266593,0.2701959 -0.626854,0.4287109 -0.356659,0.1549123 -0.767357,0.1549123 -0.407095,0 -0.767356,-0.1549123 Q 33.090358,8.2634553 32.820162,7.9932594 32.553569,7.7194609 32.398657,7.3483918 32.243744,6.9737201 32.243744,6.5414067 q 0,-0.4395187 0.154913,-0.8141904 0.154912,-0.3746717 0.421505,-0.6448676 0.270196,-0.2737986 0.626855,-0.4287109 0.360261,-0.1549123 0.767356,-0.1549123 0.410698,0 0.767357,0.1477071 0.360261,0.1441045 0.626854,0.4143004 0.266594,0.2665933 0.421506,0.6448676 0.154912,0.3746717 0.154912,0.8358061 z m -0.990718,0 q 0,-0.2377725 -0.07926,-0.4287109 -0.07565,-0.1945411 -0.208951,-0.3314403 -0.133297,-0.1405019 -0.313427,-0.2125542 -0.176528,-0.075655 -0.378275,-0.075655 -0.201746,0 -0.381877,0.075655 -0.176528,0.072052 -0.309824,0.2125542 -0.129694,0.1368992 -0.205349,0.3314403 -0.07566,0.1909384 -0.07566,0.4287109 0,0.2233619 0.07566,0.4143004 0.07565,0.1909384 0.205349,0.3314403 0.133296,0.1405019 0.309824,0.223362 0.180131,0.079257 0.381877,0.079257 0.201747,0 0.378275,-0.075655 0.18013,-0.075655 0.313427,-0.2125541 0.133297,-0.1368993 0.208951,-0.3314404 0.07926,-0.194541 0.07926,-0.4287102 z m 4.187104,-3.4283963 q 0,0.6511523 -0.23333,1.2154844 -0.23333,0.5589057 -0.634873,0.9713022 -0.401544,0.4069702 -0.944171,0.6457261 -0.537201,0.2333296 -1.155796,0.2333296 -0.613168,0 -1.155795,-0.2333296 Q 34.720222,5.7067672 34.313252,5.299797 33.911708,4.8874005 33.678378,4.3284948 33.445049,3.7641627 33.445049,3.1130104 q 0,-0.6620049 0.233329,-1.2263369 0.23333,-0.564332 0.634874,-0.97130223 0.40697,-0.41239649 0.944171,-0.64572607 0.542627,-0.23332959 1.155795,-0.23332959 0.618595,0 1.155796,0.22247705 0.542627,0.21705078 0.944171,0.62402099 0.401543,0.40154395 0.634873,0.97130225 0.23333,0.564332 0.23333,1.2588945 z m -1.492224,0 q 0,-0.3581338 -0.119378,-0.6457261 Q 37.655834,2.1742658 37.455062,1.9680675 37.25429,1.756443 36.982977,1.6479176 36.717089,1.533966 36.413218,1.533966 q -0.303871,0 -0.575184,0.1139516 -0.265888,0.1085254 -0.46666,0.3201499 -0.195345,0.2061983 -0.309297,0.4992168 -0.113952,0.2875923 -0.113952,0.6457261 0,0.3364287 0.113952,0.624021 0.113952,0.2875923 0.309297,0.4992168 0.200772,0.2116245 0.46666,0.3364287 0.271313,0.1193779 0.575184,0.1193779 0.303871,0 0.569759,-0.1139516 0.271313,-0.1139517 0.472085,-0.3201499 0.200772,-0.2061983 0.314724,-0.4992168 0.119378,-0.2930186 0.119378,-0.6457261 z" />
  </g>
  <g
     aria-label="o"
     id="text926-1"
     style="font-size:11.9068px;line-height:1.25;font-family:sans-serif;fill:url(#linearGradient1164);fill-opacity:1;stroke-width:0.264595"
     transform="translate(-5.747122,-10.623467)">
    <path
       d="m 37.387853,7.6287722 q 0,0.6976641 -0.249997,1.3023063 -0.249996,0.5988283 -0.680222,1.0406822 -0.430226,0.4360403 -1.011613,0.6918503 -0.575573,0.249996 -1.238354,0.249996 -0.656967,0 -1.238354,-0.249996 Q 32.393741,10.407801 31.9577,9.9717607 31.527474,9.5299068 31.277478,8.9310785 31.027482,8.3264363 31.027482,7.6287722 q 0,-0.7092918 0.249996,-1.313934 Q 31.527474,5.710196 31.9577,5.2741559 32.393741,4.832302 32.969313,4.5823057 33.5507,4.3323094 34.207667,4.3323094 q 0.662781,0 1.238354,0.2383686 0.581387,0.2325547 1.011613,0.6685947 0.430226,0.4302262 0.680222,1.0406823 0.249997,0.6046422 0.249997,1.3488172 z m -1.598814,0 q 0,-0.3837152 -0.127905,-0.6918502 Q 35.539043,6.6229732 35.32393,6.4020462 35.108817,6.1753054 34.818123,6.059028 34.533244,5.9369368 34.207667,5.9369368 q -0.325576,0 -0.61627,0.1220912 -0.284879,0.1162774 -0.499992,0.3430182 -0.2093,0.220927 -0.331391,0.5348758 -0.122091,0.308135 -0.122091,0.6918502 0,0.3604598 0.122091,0.6685948 0.122091,0.3081349 0.331391,0.5348757 0.215113,0.2267409 0.499992,0.3604598 0.290694,0.1279051 0.61627,0.1279051 0.325577,0 0.610456,-0.1220912 0.290694,-0.1220912 0.505807,-0.3430182 0.215113,-0.2209269 0.337204,-0.5348758 0.127905,-0.3139488 0.127905,-0.6918502 z"
       style="font-style:normal;font-variant:normal;font-weight:normal;font-stretch:normal;font-size:11.9068px;font-family:Righteous;-inkscape-font-specification:Righteous;fill:url(#linearGradient1162);fill-opacity:1;stroke-width:0.264595"
       id="path1158" />
  </g>
  <path
     d="m 37.246217,7.5677247 q 0,0.6511523 -0.233329,1.2154844 -0.23333,0.5589057 -0.634874,0.9713022 -0.401544,0.4069707 -0.944171,0.6457257 -0.537201,0.23333 -1.155795,0.23333 -0.613169,0 -1.155796,-0.23333 -0.5372,-0.238755 -0.944171,-0.6457257 -0.401543,-0.4123965 -0.634873,-0.9713022 -0.23333,-0.5643321 -0.23333,-1.2154844 0,-0.6620049 0.23333,-1.2263369 0.23333,-0.564332 0.634873,-0.9713022 0.406971,-0.4123965 0.944171,-0.6457261 0.542627,-0.2333296 1.155796,-0.2333296 0.618594,0 1.155795,0.2224771 0.542627,0.2170507 0.944171,0.6240209 0.401544,0.401544 0.634874,0.9713023 0.233329,0.564332 0.233329,1.2588945 z m -1.492224,0 q 0,-0.3581338 -0.119378,-0.6457261 Q 35.520663,6.6289801 35.319892,6.4227818 35.11912,6.2111573 34.847806,6.1026319 34.581919,5.9886803 34.278048,5.9886803 q -0.303871,0 -0.575185,0.1139516 -0.265887,0.1085254 -0.466659,0.3201499 -0.195346,0.2061983 -0.309297,0.4992168 -0.113952,0.2875923 -0.113952,0.6457261 0,0.3364287 0.113952,0.624021 0.113951,0.2875923 0.309297,0.4992168 0.200772,0.2116245 0.466659,0.3364287 0.271314,0.1193779 0.575185,0.1193779 0.303871,0 0.569758,-0.1139516 0.271314,-0.1139517 0.472086,-0.3201499 0.200771,-0.2061983 0.314723,-0.4992168 0.119378,-0.2930186 0.119378,-0.6457261 z"
     style="font-style:normal;font-variant:normal;font-weight:normal;font-stretch:normal;font-size:11.113px;line-height:1.25;font-family:Righteous;-inkscape-font-specification:Righteous;fill:#ffcc00;fill-opacity:1;stroke-width:0.264595"
     id="path1135" />
</svg>
